<svg xmlns="http://www.w3.org/2000/svg" xmlns:xlink="http://www.w3.org/1999/xlink" width="64" zoomAndPan="magnify" viewBox="0 0 48 48" height="64" preserveAspectRatio="xMidYMid meet" version="1.0"><defs><g/><clipPath id="59f0782e43"><rect x="0" width="44" y="0" height="14"/></clipPath><clipPath id="47d935d019"><path d="M 2 4 L 47.507812 4 L 47.507812 27 L 2 27 Z M 2 4 " clip-rule="nonzero"/></clipPath><clipPath id="f521c5ef41"><path d="M 28 0.9375 L 45.039062 0.9375 L 45.039062 16 L 28 16 Z M 28 0.9375 " clip-rule="nonzero"/></clipPath><clipPath id="c4b0a2f435"><path d="M 0.113281 4 L 8 4 L 8 13 L 0.113281 13 Z M 0.113281 4 " clip-rule="nonzero"/></clipPath><clipPath id="c49e8f5e48"><rect x="0" width="18" y="0" height="16"/></clipPath><clipPath id="5d7b24f986"><path d="M 1 3.875 L 28 3.875 L 28 13 L 1 13 Z M 1 3.875 " clip-rule="nonzero"/></clipPath><clipPath id="f8b3a882b9"><path d="M 0.175781 15.1875 L 27 15.1875 L 27 22 L 0.175781 22 Z M 0.175781 15.1875 " clip-rule="nonzero"/></clipPath><clipPath id="5b02ea1fa0"><path d="M 23 15.1875 L 29.332031 15.1875 L 29.332031 21 L 23 21 Z M 23 15.1875 " clip-rule="nonzero"/></clipPath><clipPath id="d55055816c"><rect x="0" width="46" y="0" height="23"/></clipPath></defs><g transform="matrix(1, 0, 0, 1, 2, 29)"><g clip-path="url(#59f0782e43)"><g fill="#ff9900" fill-opacity="1"><g transform="translate(0.498014, 10.83503)"><g><path d="M 4.421875 -1.484375 C 4.972656 -1.484375 5.390625 -1.675781 5.671875 -2.0625 C 5.953125 -2.457031 6.09375 -3.03125 6.09375 -3.78125 C 6.09375 -4.550781 5.953125 -5.128906 5.671875 -5.515625 C 5.390625 -5.910156 4.972656 -6.109375 4.421875 -6.109375 C 3.867188 -6.109375 3.453125 -5.914062 3.171875 -5.53125 C 2.890625 -5.144531 2.75 -4.570312 2.75 -3.8125 C 2.75 -3.050781 2.890625 -2.472656 3.171875 -2.078125 C 3.453125 -1.679688 3.867188 -1.484375 4.421875 -1.484375 Z M 4.421875 0.1875 C 3.617188 0.1875 2.925781 0.0195312 2.34375 -0.3125 C 1.769531 -0.644531 1.332031 -1.109375 1.03125 -1.703125 C 0.738281 -2.304688 0.59375 -3.007812 0.59375 -3.8125 C 0.59375 -4.644531 0.75 -5.359375 1.0625 -5.953125 C 1.375 -6.546875 1.816406 -7 2.390625 -7.3125 C 2.960938 -7.625 3.640625 -7.78125 4.421875 -7.78125 C 5.210938 -7.78125 5.894531 -7.613281 6.46875 -7.28125 C 7.050781 -6.957031 7.492188 -6.492188 7.796875 -5.890625 C 8.109375 -5.296875 8.265625 -4.59375 8.265625 -3.78125 C 8.265625 -2.957031 8.101562 -2.242188 7.78125 -1.640625 C 7.46875 -1.046875 7.019531 -0.59375 6.4375 -0.28125 C 5.863281 0.03125 5.191406 0.1875 4.421875 0.1875 Z M 4.421875 0.1875 "/></g></g></g><g fill="#ff9900" fill-opacity="1"><g transform="translate(9.352486, 10.83503)"><g><path d="M 3.3125 0.125 C 2.363281 0.125 1.644531 -0.117188 1.15625 -0.609375 C 0.664062 -1.109375 0.421875 -1.832031 0.421875 -2.78125 C 0.421875 -3.726562 0.679688 -4.460938 1.203125 -4.984375 C 1.722656 -5.503906 2.457031 -5.765625 3.40625 -5.765625 C 3.894531 -5.765625 4.332031 -5.691406 4.71875 -5.546875 C 4.832031 -5.492188 4.910156 -5.4375 4.953125 -5.375 C 4.992188 -5.320312 5.015625 -5.226562 5.015625 -5.09375 L 5.015625 -4.453125 C 5.015625 -4.253906 4.9375 -4.15625 4.78125 -4.15625 C 4.75 -4.15625 4.660156 -4.175781 4.515625 -4.21875 C 4.273438 -4.269531 4.039062 -4.296875 3.8125 -4.296875 C 3.363281 -4.296875 3.03125 -4.179688 2.8125 -3.953125 C 2.601562 -3.734375 2.5 -3.378906 2.5 -2.890625 L 2.5 -2.734375 C 2.5 -2.265625 2.601562 -1.914062 2.8125 -1.6875 C 3.03125 -1.457031 3.351562 -1.34375 3.78125 -1.34375 C 3.894531 -1.34375 4.023438 -1.351562 4.171875 -1.375 C 4.328125 -1.394531 4.445312 -1.421875 4.53125 -1.453125 C 4.675781 -1.484375 4.765625 -1.5 4.796875 -1.5 C 4.953125 -1.5 5.03125 -1.398438 5.03125 -1.203125 L 5.03125 -0.578125 C 5.03125 -0.429688 5.007812 -0.328125 4.96875 -0.265625 C 4.925781 -0.210938 4.847656 -0.164062 4.734375 -0.125 C 4.296875 0.0390625 3.820312 0.125 3.3125 0.125 Z M 3.3125 0.125 "/></g></g></g><g fill="#ff9900" fill-opacity="1"><g transform="translate(14.619079, 10.83503)"><g><path d="M 3.375 0.171875 C 1.40625 0.171875 0.421875 -0.820312 0.421875 -2.8125 C 0.421875 -3.75 0.671875 -4.484375 1.171875 -5.015625 C 1.679688 -5.546875 2.382812 -5.8125 3.28125 -5.8125 C 4.039062 -5.8125 4.628906 -5.609375 5.046875 -5.203125 C 5.460938 -4.796875 5.671875 -4.21875 5.671875 -3.46875 C 5.671875 -3.207031 5.648438 -2.925781 5.609375 -2.625 C 5.585938 -2.507812 5.550781 -2.425781 5.5 -2.375 C 5.445312 -2.320312 5.363281 -2.296875 5.25 -2.296875 L 2.296875 -2.296875 C 2.328125 -1.929688 2.460938 -1.664062 2.703125 -1.5 C 2.953125 -1.34375 3.320312 -1.265625 3.8125 -1.265625 C 4.207031 -1.265625 4.609375 -1.320312 5.015625 -1.4375 C 5.128906 -1.46875 5.21875 -1.484375 5.28125 -1.484375 C 5.445312 -1.484375 5.53125 -1.390625 5.53125 -1.203125 L 5.53125 -0.609375 C 5.53125 -0.472656 5.507812 -0.375 5.46875 -0.3125 C 5.4375 -0.257812 5.359375 -0.207031 5.234375 -0.15625 C 4.992188 -0.0625 4.695312 0.015625 4.34375 0.078125 C 4 0.140625 3.675781 0.171875 3.375 0.171875 Z M 3.9375 -3.484375 L 3.9375 -3.625 C 3.9375 -4.164062 3.695312 -4.4375 3.21875 -4.4375 C 2.957031 -4.4375 2.742188 -4.351562 2.578125 -4.1875 C 2.421875 -4.03125 2.328125 -3.796875 2.296875 -3.484375 Z M 3.9375 -3.484375 "/></g></g></g><g fill="#ff9900" fill-opacity="1"><g transform="translate(20.697613, 10.83503)"><g><path d="M 2.15625 0.203125 C 1.613281 0.203125 1.175781 0.046875 0.84375 -0.265625 C 0.507812 -0.585938 0.34375 -1.007812 0.34375 -1.53125 C 0.34375 -1.90625 0.441406 -2.234375 0.640625 -2.515625 C 0.835938 -2.796875 1.109375 -3.007812 1.453125 -3.15625 C 1.796875 -3.3125 2.1875 -3.390625 2.625 -3.390625 C 2.988281 -3.390625 3.320312 -3.359375 3.625 -3.296875 L 3.625 -3.578125 C 3.625 -3.878906 3.550781 -4.085938 3.40625 -4.203125 C 3.269531 -4.328125 3.023438 -4.390625 2.671875 -4.390625 C 2.484375 -4.390625 2.265625 -4.367188 2.015625 -4.328125 C 1.765625 -4.285156 1.539062 -4.234375 1.34375 -4.171875 C 1.175781 -4.128906 1.0625 -4.109375 1 -4.109375 C 0.863281 -4.109375 0.796875 -4.203125 0.796875 -4.390625 L 0.796875 -5 C 0.796875 -5.132812 0.8125 -5.226562 0.84375 -5.28125 C 0.882812 -5.34375 0.96875 -5.398438 1.09375 -5.453125 C 1.695312 -5.691406 2.394531 -5.8125 3.1875 -5.8125 C 4 -5.8125 4.59375 -5.648438 4.96875 -5.328125 C 5.34375 -5.003906 5.53125 -4.488281 5.53125 -3.78125 L 5.53125 -0.328125 C 5.53125 -0.210938 5.503906 -0.128906 5.453125 -0.078125 C 5.410156 -0.0234375 5.328125 0 5.203125 0 L 4.1875 0 C 4.082031 0 4.003906 -0.0195312 3.953125 -0.0625 C 3.898438 -0.101562 3.851562 -0.175781 3.8125 -0.28125 L 3.765625 -0.4375 C 3.546875 -0.226562 3.296875 -0.0703125 3.015625 0.03125 C 2.734375 0.144531 2.445312 0.203125 2.15625 0.203125 Z M 2.828125 -1.109375 C 2.960938 -1.109375 3.101562 -1.140625 3.25 -1.203125 C 3.40625 -1.265625 3.53125 -1.34375 3.625 -1.4375 L 3.625 -2.25 C 3.375 -2.28125 3.171875 -2.296875 3.015625 -2.296875 C 2.523438 -2.296875 2.28125 -2.085938 2.28125 -1.671875 C 2.28125 -1.503906 2.328125 -1.367188 2.421875 -1.265625 C 2.523438 -1.160156 2.660156 -1.109375 2.828125 -1.109375 Z M 2.828125 -1.109375 "/></g></g></g><g fill="#ff9900" fill-opacity="1"><g transform="translate(26.907815, 10.83503)"><g><path d="M 1.03125 0 C 0.914062 0 0.832031 -0.0234375 0.78125 -0.078125 C 0.726562 -0.128906 0.703125 -0.210938 0.703125 -0.328125 L 0.703125 -5.3125 C 0.703125 -5.4375 0.726562 -5.523438 0.78125 -5.578125 C 0.832031 -5.628906 0.914062 -5.65625 1.03125 -5.65625 L 2.09375 -5.65625 C 2.195312 -5.65625 2.273438 -5.632812 2.328125 -5.59375 C 2.378906 -5.550781 2.425781 -5.472656 2.46875 -5.359375 L 2.5625 -5.078125 C 2.90625 -5.335938 3.238281 -5.523438 3.5625 -5.640625 C 3.894531 -5.753906 4.242188 -5.8125 4.609375 -5.8125 C 5.128906 -5.8125 5.53125 -5.664062 5.8125 -5.375 C 6.09375 -5.09375 6.234375 -4.691406 6.234375 -4.171875 L 6.234375 -0.328125 C 6.234375 -0.210938 6.207031 -0.128906 6.15625 -0.078125 C 6.113281 -0.0234375 6.03125 0 5.90625 0 L 4.5 0 C 4.382812 0 4.300781 -0.0234375 4.25 -0.078125 C 4.195312 -0.128906 4.171875 -0.210938 4.171875 -0.328125 L 4.171875 -3.703125 C 4.171875 -3.921875 4.128906 -4.082031 4.046875 -4.1875 C 3.960938 -4.289062 3.820312 -4.34375 3.625 -4.34375 C 3.351562 -4.34375 3.066406 -4.25 2.765625 -4.0625 L 2.765625 -0.328125 C 2.765625 -0.210938 2.738281 -0.128906 2.6875 -0.078125 C 2.644531 -0.0234375 2.5625 0 2.4375 0 Z M 1.03125 0 "/></g></g></g><g fill="#ff9900" fill-opacity="1"><g transform="translate(33.820226, 10.83503)"><g><path d="M 1.03125 0 C 0.914062 0 0.832031 -0.0234375 0.78125 -0.078125 C 0.726562 -0.128906 0.703125 -0.210938 0.703125 -0.328125 L 0.703125 -5.3125 C 0.703125 -5.4375 0.726562 -5.523438 0.78125 -5.578125 C 0.832031 -5.628906 0.914062 -5.65625 1.03125 -5.65625 L 2.4375 -5.65625 C 2.5625 -5.65625 2.644531 -5.628906 2.6875 -5.578125 C 2.738281 -5.523438 2.765625 -5.4375 2.765625 -5.3125 L 2.765625 -0.328125 C 2.765625 -0.210938 2.738281 -0.128906 2.6875 -0.078125 C 2.644531 -0.0234375 2.5625 0 2.4375 0 Z M 1.734375 -6.359375 C 1.378906 -6.359375 1.097656 -6.453125 0.890625 -6.640625 C 0.679688 -6.835938 0.578125 -7.09375 0.578125 -7.40625 C 0.578125 -7.71875 0.679688 -7.96875 0.890625 -8.15625 C 1.097656 -8.351562 1.378906 -8.453125 1.734375 -8.453125 C 2.085938 -8.453125 2.367188 -8.351562 2.578125 -8.15625 C 2.785156 -7.96875 2.890625 -7.71875 2.890625 -7.40625 C 2.890625 -7.09375 2.785156 -6.835938 2.578125 -6.640625 C 2.367188 -6.453125 2.085938 -6.359375 1.734375 -6.359375 Z M 1.734375 -6.359375 "/></g></g></g><g fill="#ff9900" fill-opacity="1"><g transform="translate(37.287407, 10.83503)"><g><path d="M 2.15625 0.203125 C 1.613281 0.203125 1.175781 0.046875 0.84375 -0.265625 C 0.507812 -0.585938 0.34375 -1.007812 0.34375 -1.53125 C 0.34375 -1.90625 0.441406 -2.234375 0.640625 -2.515625 C 0.835938 -2.796875 1.109375 -3.007812 1.453125 -3.15625 C 1.796875 -3.3125 2.1875 -3.390625 2.625 -3.390625 C 2.988281 -3.390625 3.320312 -3.359375 3.625 -3.296875 L 3.625 -3.578125 C 3.625 -3.878906 3.550781 -4.085938 3.40625 -4.203125 C 3.269531 -4.328125 3.023438 -4.390625 2.671875 -4.390625 C 2.484375 -4.390625 2.265625 -4.367188 2.015625 -4.328125 C 1.765625 -4.285156 1.539062 -4.234375 1.34375 -4.171875 C 1.175781 -4.128906 1.0625 -4.109375 1 -4.109375 C 0.863281 -4.109375 0.796875 -4.203125 0.796875 -4.390625 L 0.796875 -5 C 0.796875 -5.132812 0.8125 -5.226562 0.84375 -5.28125 C 0.882812 -5.34375 0.96875 -5.398438 1.09375 -5.453125 C 1.695312 -5.691406 2.394531 -5.8125 3.1875 -5.8125 C 4 -5.8125 4.59375 -5.648438 4.96875 -5.328125 C 5.34375 -5.003906 5.53125 -4.488281 5.53125 -3.78125 L 5.53125 -0.328125 C 5.53125 -0.210938 5.503906 -0.128906 5.453125 -0.078125 C 5.410156 -0.0234375 5.328125 0 5.203125 0 L 4.1875 0 C 4.082031 0 4.003906 -0.0195312 3.953125 -0.0625 C 3.898438 -0.101562 3.851562 -0.175781 3.8125 -0.28125 L 3.765625 -0.4375 C 3.546875 -0.226562 3.296875 -0.0703125 3.015625 0.03125 C 2.734375 0.144531 2.445312 0.203125 2.15625 0.203125 Z M 2.828125 -1.109375 C 2.960938 -1.109375 3.101562 -1.140625 3.25 -1.203125 C 3.40625 -1.265625 3.53125 -1.34375 3.625 -1.4375 L 3.625 -2.25 C 3.375 -2.28125 3.171875 -2.296875 3.015625 -2.296875 C 2.523438 -2.296875 2.28125 -2.085938 2.28125 -1.671875 C 2.28125 -1.503906 2.328125 -1.367188 2.421875 -1.265625 C 2.523438 -1.160156 2.660156 -1.109375 2.828125 -1.109375 Z M 2.828125 -1.109375 "/></g></g></g></g></g><g clip-path="url(#47d935d019)"><g transform="matrix(1, 0, 0, 1, 2, 4)"><g clip-path="url(#d55055816c)"><g clip-path="url(#f521c5ef41)"><g transform="matrix(1, 0, 0, 1, 28, 0.000000000000003553)"><g clip-path="url(#c49e8f5e48)"><g clip-path="url(#c4b0a2f435)"><g fill="#ff9900" fill-opacity="1"><g transform="translate(0.197377, 12.707776)"><g><path d="M 4.984375 0.15625 C 3.566406 0.15625 2.488281 -0.210938 1.75 -0.953125 C 1.019531 -1.703125 0.65625 -2.796875 0.65625 -4.234375 C 0.65625 -5.640625 1.039062 -6.734375 1.8125 -7.515625 C 2.582031 -8.296875 3.648438 -8.6875 5.015625 -8.6875 C 5.671875 -8.6875 6.285156 -8.597656 6.859375 -8.421875 C 6.992188 -8.378906 7.082031 -8.320312 7.125 -8.25 C 7.164062 -8.1875 7.1875 -8.078125 7.1875 -7.921875 L 7.1875 -6.890625 C 7.1875 -6.660156 7.101562 -6.546875 6.9375 -6.546875 C 6.894531 -6.546875 6.789062 -6.566406 6.625 -6.609375 C 6.226562 -6.703125 5.828125 -6.75 5.421875 -6.75 C 4.671875 -6.75 4.101562 -6.550781 3.71875 -6.15625 C 3.332031 -5.757812 3.140625 -5.171875 3.140625 -4.390625 L 3.140625 -4.125 C 3.140625 -3.351562 3.320312 -2.765625 3.6875 -2.359375 C 4.0625 -1.960938 4.613281 -1.765625 5.34375 -1.765625 C 5.851562 -1.765625 6.332031 -1.820312 6.78125 -1.9375 C 6.90625 -1.96875 7 -1.984375 7.0625 -1.984375 C 7.226562 -1.984375 7.3125 -1.867188 7.3125 -1.640625 L 7.3125 -0.609375 C 7.3125 -0.453125 7.289062 -0.335938 7.25 -0.265625 C 7.207031 -0.203125 7.117188 -0.148438 6.984375 -0.109375 C 6.429688 0.0664062 5.765625 0.15625 4.984375 0.15625 Z M 4.984375 0.15625 "/></g></g></g></g><g fill="#ff9900" fill-opacity="1"><g transform="translate(7.852059, 12.707776)"><g><path d="M 1.28125 0 C 1.144531 0 1.046875 -0.0234375 0.984375 -0.078125 C 0.929688 -0.140625 0.90625 -0.238281 0.90625 -0.375 L 0.90625 -8.15625 C 0.90625 -8.289062 0.929688 -8.382812 0.984375 -8.4375 C 1.046875 -8.488281 1.144531 -8.515625 1.28125 -8.515625 L 4.25 -8.515625 C 5.550781 -8.515625 6.5625 -8.144531 7.28125 -7.40625 C 8.007812 -6.675781 8.375 -5.628906 8.375 -4.265625 C 8.375 -3.367188 8.210938 -2.597656 7.890625 -1.953125 C 7.578125 -1.316406 7.117188 -0.832031 6.515625 -0.5 C 5.921875 -0.164062 5.210938 0 4.390625 0 Z M 3.28125 -1.8125 L 4.09375 -1.8125 C 5.332031 -1.8125 5.953125 -2.59375 5.953125 -4.15625 L 5.953125 -4.375 C 5.953125 -5.925781 5.34375 -6.703125 4.125 -6.703125 L 3.28125 -6.703125 Z M 3.28125 -1.8125 "/></g></g></g></g></g></g><g clip-path="url(#5d7b24f986)"><path fill="#ffffff" d="M 8.300781 10.214844 C 8.300781 10.566406 8.335938 10.855469 8.402344 11.070312 C 8.480469 11.28125 8.578125 11.511719 8.710938 11.761719 C 8.753906 11.828125 8.777344 11.902344 8.777344 11.984375 C 8.777344 12.078125 8.71875 12.175781 8.597656 12.269531 L 7.992188 12.675781 C 7.917969 12.726562 7.835938 12.757812 7.742188 12.761719 C 7.644531 12.761719 7.550781 12.714844 7.453125 12.628906 C 7.324219 12.488281 7.210938 12.335938 7.109375 12.175781 C 7.003906 11.992188 6.902344 11.800781 6.8125 11.609375 C 6.0625 12.492188 5.125 12.9375 3.992188 12.9375 C 3.1875 12.9375 2.546875 12.703125 2.078125 12.242188 C 1.605469 11.78125 1.367188 11.164062 1.367188 10.394531 C 1.367188 9.578125 1.65625 8.914062 2.238281 8.414062 C 2.824219 7.914062 3.601562 7.664062 4.589844 7.664062 C 4.914062 7.664062 5.25 7.691406 5.605469 7.738281 C 5.960938 7.789062 6.324219 7.867188 6.707031 7.953125 L 6.707031 7.25 C 6.707031 6.519531 6.554688 6.007812 6.257812 5.710938 C 5.949219 5.410156 5.429688 5.269531 4.691406 5.269531 C 4.359375 5.269531 4.011719 5.308594 3.660156 5.394531 C 3.304688 5.476562 2.960938 5.585938 2.621094 5.71875 C 2.515625 5.769531 2.402344 5.8125 2.289062 5.847656 C 2.238281 5.863281 2.1875 5.871094 2.132812 5.875 C 2 5.875 1.933594 5.777344 1.933594 5.574219 L 1.933594 5.105469 C 1.933594 4.949219 1.949219 4.832031 2 4.769531 C 2.074219 4.679688 2.164062 4.613281 2.269531 4.566406 C 2.601562 4.390625 3.007812 4.25 3.476562 4.132812 C 3.945312 4.007812 4.445312 3.949219 4.972656 3.949219 C 6.113281 3.949219 6.945312 4.210938 7.484375 4.730469 C 8.011719 5.25 8.28125 6.039062 8.28125 7.097656 L 8.28125 10.214844 Z M 4.40625 11.675781 C 4.722656 11.675781 5.046875 11.617188 5.394531 11.5 C 5.738281 11.386719 6.046875 11.171875 6.304688 10.886719 C 6.460938 10.707031 6.570312 10.5 6.628906 10.269531 C 6.6875 10.039062 6.726562 9.761719 6.726562 9.433594 L 6.726562 9.03125 C 6.4375 8.960938 6.140625 8.90625 5.84375 8.867188 C 5.546875 8.828125 5.246094 8.808594 4.941406 8.808594 C 4.300781 8.808594 3.832031 8.933594 3.515625 9.195312 C 3.199219 9.453125 3.046875 9.820312 3.046875 10.300781 C 3.046875 10.75 3.160156 11.085938 3.398438 11.320312 C 3.628906 11.558594 3.964844 11.675781 4.40625 11.675781 Z M 12.105469 12.714844 C 11.933594 12.714844 11.816406 12.683594 11.742188 12.617188 C 11.664062 12.558594 11.597656 12.425781 11.539062 12.242188 L 9.285156 4.808594 C 9.242188 4.679688 9.214844 4.554688 9.199219 4.421875 C 9.199219 4.269531 9.277344 4.179688 9.429688 4.179688 L 10.371094 4.179688 C 10.550781 4.179688 10.675781 4.210938 10.742188 4.277344 C 10.820312 4.335938 10.878906 4.46875 10.933594 4.652344 L 12.546875 11.019531 L 14.042969 4.652344 C 14.089844 4.460938 14.144531 4.335938 14.222656 4.277344 C 14.339844 4.203125 14.46875 4.171875 14.605469 4.179688 L 15.375 4.179688 C 15.554688 4.179688 15.679688 4.210938 15.757812 4.277344 C 15.832031 4.335938 15.902344 4.46875 15.941406 4.652344 L 17.453125 11.097656 L 19.109375 4.652344 C 19.140625 4.511719 19.207031 4.386719 19.304688 4.277344 C 19.417969 4.203125 19.542969 4.171875 19.679688 4.179688 L 20.570312 4.179688 C 20.722656 4.179688 20.808594 4.257812 20.808594 4.421875 C 20.808594 4.46875 20.800781 4.519531 20.792969 4.574219 C 20.777344 4.65625 20.753906 4.738281 20.722656 4.816406 L 18.410156 12.25 C 18.355469 12.445312 18.289062 12.570312 18.210938 12.628906 C 18.101562 12.699219 17.980469 12.730469 17.847656 12.722656 L 17.023438 12.722656 C 16.839844 12.722656 16.714844 12.695312 16.640625 12.628906 C 16.5625 12.558594 16.496094 12.433594 16.457031 12.242188 L 14.972656 6.039062 L 13.492188 12.234375 C 13.445312 12.425781 13.390625 12.550781 13.3125 12.617188 C 13.234375 12.6875 13.101562 12.714844 12.929688 12.714844 Z M 24.425781 12.972656 C 23.925781 12.972656 23.433594 12.917969 22.945312 12.800781 C 22.46875 12.683594 22.09375 12.558594 21.84375 12.414062 C 21.691406 12.328125 21.585938 12.234375 21.546875 12.144531 C 21.511719 12.058594 21.492188 11.96875 21.492188 11.875 L 21.492188 11.386719 C 21.492188 11.183594 21.566406 11.085938 21.710938 11.085938 C 21.769531 11.085938 21.828125 11.097656 21.882812 11.117188 C 21.941406 11.136719 22.027344 11.171875 22.125 11.214844 C 22.449219 11.355469 22.804688 11.472656 23.175781 11.550781 C 23.5625 11.625 23.933594 11.664062 24.316406 11.664062 C 24.921875 11.664062 25.390625 11.558594 25.71875 11.347656 C 26.0625 11.140625 26.226562 10.835938 26.214844 10.433594 C 26.222656 10.171875 26.136719 9.949219 25.957031 9.761719 C 25.785156 9.578125 25.460938 9.414062 24.988281 9.261719 L 23.597656 8.828125 C 22.898438 8.605469 22.382812 8.277344 22.066406 7.847656 C 21.75 7.433594 21.589844 6.96875 21.585938 6.453125 C 21.585938 6.046875 21.671875 5.691406 21.84375 5.382812 C 22.015625 5.078125 22.246094 4.808594 22.535156 4.59375 C 22.824219 4.375 23.148438 4.210938 23.53125 4.09375 C 23.917969 3.980469 24.316406 3.929688 24.738281 3.929688 C 24.953125 3.929688 25.171875 3.941406 25.382812 3.96875 C 25.601562 3.996094 25.804688 4.039062 26.007812 4.078125 C 26.195312 4.125 26.378906 4.171875 26.550781 4.230469 C 26.726562 4.289062 26.859375 4.34375 26.957031 4.402344 C 27.070312 4.460938 27.167969 4.539062 27.242188 4.644531 C 27.308594 4.738281 27.335938 4.84375 27.328125 4.960938 L 27.328125 5.410156 C 27.328125 5.613281 27.253906 5.71875 27.109375 5.71875 C 26.980469 5.707031 26.859375 5.667969 26.746094 5.605469 C 26.160156 5.34375 25.542969 5.21875 24.902344 5.230469 C 24.359375 5.230469 23.925781 5.316406 23.628906 5.5 C 23.332031 5.679688 23.175781 5.960938 23.175781 6.355469 C 23.175781 6.625 23.273438 6.855469 23.464844 7.039062 C 23.65625 7.222656 24.011719 7.402344 24.519531 7.566406 L 25.882812 8 C 26.570312 8.222656 27.070312 8.527344 27.367188 8.921875 C 27.664062 9.316406 27.808594 9.769531 27.808594 10.269531 C 27.808594 10.683594 27.722656 11.058594 27.558594 11.386719 C 27.386719 11.71875 27.152344 12 26.859375 12.234375 C 26.5625 12.472656 26.207031 12.648438 25.796875 12.773438 C 25.363281 12.90625 24.914062 12.972656 24.425781 12.972656 Z M 24.425781 12.972656 " fill-opacity="1" fill-rule="nonzero"/></g><g clip-path="url(#f8b3a882b9)"><path fill="#ff9900" d="M 26.4375 18.320312 C 23.257812 20.675781 18.640625 21.925781 14.667969 21.925781 C 9.105469 21.925781 4.089844 19.863281 0.304688 16.429688 C 0.00390625 16.15625 0.273438 15.789062 0.628906 16.003906 C 4.726562 18.386719 9.78125 19.832031 15.007812 19.832031 C 18.53125 19.832031 22.40625 19.09375 25.972656 17.582031 C 26.503906 17.339844 26.957031 17.929688 26.4375 18.320312 Z M 26.4375 18.320312 " fill-opacity="1" fill-rule="evenodd"/></g><g clip-path="url(#5b02ea1fa0)"><path fill="#ff9900" d="M 27.757812 16.808594 C 27.355469 16.285156 25.074219 16.558594 24.039062 16.683594 C 23.730469 16.722656 23.683594 16.449219 23.964844 16.246094 C 25.777344 14.964844 28.765625 15.335938 29.113281 15.761719 C 29.460938 16.199219 29.015625 19.191406 27.3125 20.628906 C 27.054688 20.851562 26.804688 20.738281 26.921875 20.445312 C 27.304688 19.484375 28.164062 17.324219 27.757812 16.808594 Z M 27.757812 16.808594 " fill-opacity="1" fill-rule="evenodd"/></g></g></g></g></svg>