<svg xmlns="http://www.w3.org/2000/svg" xmlns:xlink="http://www.w3.org/1999/xlink" width="64" zoomAndPan="magnify" viewBox="0 0 48 48" height="64" preserveAspectRatio="xMidYMid meet" version="1.0"><defs><clipPath id="797950f528"><path d="M 4 10.695312 L 44 10.695312 L 44 24.65625 L 4 24.65625 Z M 4 10.695312 " clip-rule="nonzero"/></clipPath><clipPath id="2274b7b87c"><path d="M 2.839844 27 L 42 27 L 42 36.636719 L 2.839844 36.636719 Z M 2.839844 27 " clip-rule="nonzero"/></clipPath><clipPath id="4297ad5d74"><path d="M 37 26.351562 L 45.453125 26.351562 L 45.453125 35 L 37 35 Z M 37 26.351562 " clip-rule="nonzero"/></clipPath></defs><g clip-path="url(#797950f528)"><path fill="#ffffff" d="M 14.769531 20 C 14.769531 20.519531 14.820312 20.945312 14.921875 21.253906 C 15.03125 21.566406 15.175781 21.902344 15.371094 22.269531 C 15.433594 22.371094 15.46875 22.480469 15.46875 22.597656 C 15.46875 22.738281 15.382812 22.878906 15.203125 23.019531 L 14.316406 23.613281 C 14.207031 23.691406 14.085938 23.734375 13.949219 23.738281 C 13.808594 23.738281 13.667969 23.671875 13.527344 23.542969 C 13.335938 23.339844 13.167969 23.117188 13.019531 22.878906 C 12.863281 22.609375 12.71875 22.332031 12.585938 22.046875 C 11.484375 23.34375 10.109375 23.996094 8.449219 23.996094 C 7.265625 23.996094 6.320312 23.652344 5.632812 22.976562 C 4.941406 22.300781 4.589844 21.394531 4.589844 20.265625 C 4.589844 19.066406 5.015625 18.09375 5.871094 17.359375 C 6.730469 16.621094 7.871094 16.257812 9.320312 16.257812 C 9.796875 16.257812 10.289062 16.300781 10.8125 16.367188 C 11.332031 16.441406 11.871094 16.554688 12.429688 16.679688 L 12.429688 15.648438 C 12.429688 14.574219 12.207031 13.828125 11.769531 13.390625 C 11.320312 12.953125 10.558594 12.738281 9.472656 12.738281 C 8.980469 12.738281 8.476562 12.796875 7.957031 12.925781 C 7.4375 13.046875 6.929688 13.207031 6.433594 13.402344 C 6.273438 13.476562 6.109375 13.539062 5.941406 13.589844 C 5.871094 13.613281 5.796875 13.628906 5.71875 13.632812 C 5.519531 13.632812 5.421875 13.488281 5.421875 13.191406 L 5.421875 12.5 C 5.421875 12.273438 5.449219 12.101562 5.519531 12.007812 C 5.628906 11.875 5.761719 11.777344 5.917969 11.707031 C 6.40625 11.453125 7 11.242188 7.6875 11.074219 C 8.375 10.890625 9.109375 10.808594 9.882812 10.808594 C 11.558594 10.808594 12.78125 11.1875 13.570312 11.949219 C 14.34375 12.710938 14.738281 13.871094 14.738281 15.425781 L 14.738281 20 Z M 9.054688 22.144531 C 9.515625 22.144531 9.996094 22.058594 10.503906 21.890625 C 11.011719 21.722656 11.460938 21.410156 11.835938 20.984375 C 12.066406 20.722656 12.226562 20.421875 12.316406 20.085938 C 12.402344 19.742188 12.460938 19.335938 12.460938 18.855469 L 12.460938 18.261719 C 12.03125 18.160156 11.601562 18.078125 11.164062 18.023438 C 10.722656 17.96875 10.285156 17.9375 9.839844 17.9375 C 8.898438 17.9375 8.210938 18.121094 7.742188 18.503906 C 7.277344 18.882812 7.054688 19.421875 7.054688 20.125 C 7.054688 20.789062 7.222656 21.28125 7.574219 21.625 C 7.914062 21.976562 8.40625 22.144531 9.054688 22.144531 Z M 20.351562 23.671875 C 20.097656 23.671875 19.929688 23.628906 19.820312 23.527344 C 19.707031 23.441406 19.609375 23.246094 19.523438 22.976562 L 16.21875 12.0625 C 16.152344 11.878906 16.109375 11.691406 16.089844 11.496094 C 16.089844 11.273438 16.203125 11.144531 16.425781 11.144531 L 17.808594 11.144531 C 18.070312 11.144531 18.257812 11.1875 18.355469 11.285156 C 18.46875 11.371094 18.550781 11.570312 18.636719 11.835938 L 21 21.183594 L 23.195312 11.835938 C 23.265625 11.554688 23.351562 11.371094 23.464844 11.285156 C 23.636719 11.179688 23.824219 11.132812 24.027344 11.144531 L 25.152344 11.144531 C 25.417969 11.144531 25.601562 11.1875 25.714844 11.285156 C 25.828125 11.371094 25.925781 11.570312 25.984375 11.835938 L 28.207031 21.296875 L 30.636719 11.835938 C 30.683594 11.628906 30.777344 11.445312 30.921875 11.285156 C 31.089844 11.179688 31.273438 11.132812 31.472656 11.144531 L 32.78125 11.144531 C 33.003906 11.144531 33.132812 11.257812 33.132812 11.496094 C 33.132812 11.570312 33.117188 11.640625 33.105469 11.722656 C 33.082031 11.84375 33.050781 11.960938 33.003906 12.074219 L 29.613281 22.992188 C 29.53125 23.273438 29.429688 23.457031 29.320312 23.542969 C 29.15625 23.648438 28.976562 23.695312 28.78125 23.683594 L 27.574219 23.683594 C 27.304688 23.683594 27.125 23.640625 27.011719 23.542969 C 26.894531 23.441406 26.796875 23.261719 26.742188 22.976562 L 24.5625 13.871094 L 22.390625 22.964844 C 22.324219 23.25 22.238281 23.433594 22.128906 23.53125 C 22.015625 23.628906 21.816406 23.671875 21.566406 23.671875 Z M 38.4375 24.050781 C 37.703125 24.050781 36.980469 23.96875 36.269531 23.796875 C 35.566406 23.628906 35.019531 23.441406 34.648438 23.230469 C 34.425781 23.105469 34.273438 22.964844 34.214844 22.835938 C 34.160156 22.707031 34.132812 22.578125 34.132812 22.441406 L 34.132812 21.722656 C 34.132812 21.425781 34.242188 21.28125 34.453125 21.28125 C 34.542969 21.28125 34.625 21.296875 34.707031 21.324219 C 34.792969 21.351562 34.921875 21.410156 35.058594 21.46875 C 35.535156 21.679688 36.058594 21.847656 36.605469 21.960938 C 37.171875 22.074219 37.71875 22.132812 38.28125 22.132812 C 39.167969 22.132812 39.859375 21.976562 40.335938 21.664062 C 40.570312 21.523438 40.753906 21.332031 40.882812 21.09375 C 41.015625 20.851562 41.078125 20.59375 41.070312 20.320312 C 41.078125 19.941406 40.953125 19.613281 40.6875 19.335938 C 40.4375 19.066406 39.957031 18.824219 39.269531 18.601562 L 37.226562 17.964844 C 36.199219 17.640625 35.4375 17.160156 34.976562 16.523438 C 34.511719 15.921875 34.273438 15.238281 34.273438 14.476562 C 34.273438 13.886719 34.398438 13.363281 34.648438 12.910156 C 34.902344 12.460938 35.242188 12.0625 35.664062 11.75 C 36.089844 11.429688 36.566406 11.1875 37.128906 11.019531 C 37.691406 10.847656 38.28125 10.777344 38.898438 10.777344 C 39.210938 10.777344 39.535156 10.789062 39.84375 10.832031 C 40.167969 10.875 40.464844 10.933594 40.757812 10.992188 C 41.039062 11.0625 41.308594 11.128906 41.5625 11.214844 C 41.8125 11.300781 42.011719 11.386719 42.152344 11.46875 C 42.320312 11.554688 42.460938 11.671875 42.574219 11.824219 C 42.667969 11.964844 42.710938 12.117188 42.699219 12.289062 L 42.699219 12.953125 C 42.699219 13.246094 42.589844 13.402344 42.378906 13.402344 C 42.1875 13.382812 42.011719 13.324219 41.84375 13.234375 C 40.984375 12.851562 40.082031 12.667969 39.140625 12.683594 C 38.339844 12.683594 37.703125 12.8125 37.269531 13.082031 C 36.832031 13.34375 36.605469 13.757812 36.605469 14.335938 C 36.605469 14.730469 36.746094 15.070312 37.03125 15.339844 C 37.3125 15.605469 37.832031 15.875 38.578125 16.113281 L 40.578125 16.75 C 41.589844 17.074219 42.320312 17.527344 42.757812 18.105469 C 43.195312 18.683594 43.402344 19.347656 43.402344 20.085938 C 43.402344 20.691406 43.28125 21.238281 43.039062 21.722656 C 42.785156 22.210938 42.445312 22.625 42.011719 22.964844 C 41.578125 23.316406 41.054688 23.574219 40.449219 23.753906 C 39.816406 23.953125 39.152344 24.050781 38.4375 24.050781 Z M 38.4375 24.050781 " fill-opacity="1" fill-rule="nonzero"/></g><g clip-path="url(#2274b7b87c)"><path fill="#ff9900" d="M 41.09375 30.910156 C 36.46875 34.339844 29.738281 36.164062 23.957031 36.164062 C 15.851562 36.164062 8.546875 33.15625 3.027344 28.15625 C 2.59375 27.761719 2.984375 27.222656 3.503906 27.535156 C 9.472656 31.007812 16.832031 33.113281 24.449219 33.113281 C 29.582031 33.113281 35.226562 32.039062 40.421875 29.835938 C 41.195312 29.484375 41.855469 30.34375 41.09375 30.910156 Z M 41.09375 30.910156 " fill-opacity="1" fill-rule="evenodd"/></g><g clip-path="url(#4297ad5d74)"><path fill="#ff9900" d="M 43.023438 28.707031 C 42.433594 27.949219 39.113281 28.34375 37.605469 28.527344 C 37.15625 28.582031 37.085938 28.1875 37.492188 27.890625 C 40.136719 26.027344 44.488281 26.5625 44.992188 27.183594 C 45.5 27.820312 44.851562 32.183594 42.375 34.273438 C 41.996094 34.597656 41.632812 34.429688 41.800781 34.007812 C 42.363281 32.605469 43.617188 29.460938 43.023438 28.710938 Z M 43.023438 28.707031 " fill-opacity="1" fill-rule="evenodd"/></g></svg>